<svg width="48" height="48" viewBox="0 0 48 48" fill="none" xmlns="http://www.w3.org/2000/svg">
<g clip-path="url(#clip0_10_4)">
<path d="M38.7188 0H9.28125C4.1625 0 0 4.1625 0 9.28125V19.0875V38.7375C0 43.8563 4.1625 48.0187 9.28125 48.0187H38.7188C43.8375 48.0187 48 43.8563 48 38.7375V19.0688V9.2625C47.9812 4.1625 43.8188 0 38.7188 0ZM41.3812 5.53125H42.45V6.58125V13.6687L34.3313 13.6875L34.3125 5.55L41.3812 5.53125ZM17.1375 19.0688C18.675 16.95 21.1687 15.5437 23.9812 15.5437C26.7937 15.5437 29.2875 16.9313 30.825 19.0688C31.8375 20.4563 32.4187 22.1625 32.4187 24C32.4187 28.65 28.6313 32.4563 23.9625 32.4563C19.2938 32.4563 15.5437 28.65 15.5437 24C15.5437 22.1625 16.1437 20.4563 17.1375 19.0688ZM43.3125 38.7188C43.3125 41.25 41.25 43.3125 38.7188 43.3125H9.28125C6.75 43.3125 4.6875 41.25 4.6875 38.7188V19.0688H11.85C11.2312 20.5875 10.875 22.2562 10.875 24C10.875 31.2375 16.7625 37.125 24 37.125C31.2375 37.125 37.125 31.2375 37.125 24C37.125 22.2562 36.7688 20.5875 36.15 19.0688H43.3125V38.7188Z" fill="black"/>
</g>
<defs>
<clipPath id="clip0_10_4">
<rect width="48" height="48" fill="white"/>
</clipPath>
</defs>
</svg>
