<svg width="48" height="48" viewBox="0 0 48 48" fill="none" xmlns="http://www.w3.org/2000/svg">
<path d="M43.4683 14.826C43.4683 15.1968 43.4683 15.5894 43.4683 15.9602C43.4891 19.2541 42.8403 22.5192 41.5598 25.5663C40.2791 28.6133 38.3923 31.3816 36.0084 33.7108C33.6244 36.0401 30.7911 37.8836 27.6725 39.1349C24.5539 40.386 21.212 41.0198 17.8407 40.9995C12.9342 41.0135 8.12812 39.6426 4 37.0517C4.73668 37.0517 5.42872 37.0517 6.23237 37.0517C10.2807 37.0517 14.2116 35.7229 17.3942 33.2783C15.5077 33.2617 13.675 32.6619 12.1591 31.5648C10.6431 30.4677 9.52176 28.9296 8.95586 27.1712C9.52433 27.2597 10.0991 27.3036 10.6748 27.302C11.4721 27.2964 12.2661 27.2013 13.0411 27.0185C11.0242 26.6163 9.21144 25.5456 7.90968 23.9874C6.60792 22.4294 5.89711 20.4797 5.89751 18.4685C7.14561 19.1411 8.53633 19.5219 9.96042 19.5808C8.70387 18.7687 7.67434 17.6634 6.96494 16.3648C6.25556 15.0661 5.88869 13.6152 5.89751 12.1432C5.9003 10.6109 6.31608 9.10637 7.10299 7.78094C9.36155 10.5022 12.1799 12.7297 15.3756 14.319C18.5713 15.9084 22.0731 16.8242 25.654 17.0071C25.5122 16.347 25.4375 15.6749 25.4308 15.0005C25.3725 13.2052 25.883 11.436 26.8923 9.9347C27.9018 8.43336 29.3606 7.27302 31.0702 6.61207C32.7795 5.95115 34.6562 5.82185 36.4437 6.24185C38.2312 6.66185 39.8423 7.61068 41.0573 8.95875C43.0776 8.56224 45.0118 7.82413 46.7722 6.77762C46.0998 8.81296 44.6858 10.5361 42.7986 11.6197C44.5927 11.4303 46.3467 10.9743 48 10.2674C46.7758 12.0144 45.2678 13.5542 43.5353 14.826H43.4683Z" fill="black"/>
</svg>
