<svg width="48" height="48" viewBox="0 0 48 48" fill="none" xmlns="http://www.w3.org/2000/svg">
<path d="M45.0914 10.8649C44.847 9.91944 44.3567 9.05603 43.6706 8.36291C42.9845 7.6698 42.1274 7.17181 41.1866 6.91985C35.4834 6.24503 29.7425 5.94093 24 6.00945C18.2576 5.94093 12.5167 6.24503 6.81338 6.91985C5.87271 7.17181 5.01555 7.6698 4.32951 8.36291C3.64345 9.05603 3.15312 9.91944 2.90858 10.8649C2.28384 14.3794 1.98009 17.9439 2.00112 21.5138C1.97904 25.1021 2.28279 28.6849 2.90858 32.2178C3.1658 33.1481 3.66176 33.9942 4.34697 34.672C5.03216 35.3499 5.88261 35.8354 6.81338 36.0801C12.5167 36.7549 18.2576 37.0592 24 36.9905C29.7425 37.0592 35.4834 36.7549 41.1866 36.0801C42.1175 35.8354 42.968 35.3499 43.653 34.672C44.3382 33.9942 44.8343 33.1481 45.0914 32.2178C45.7173 28.6849 46.0209 25.1021 45.9989 21.5138C46.0201 17.9439 45.7162 14.3794 45.0914 10.8649ZM19.4902 28.1072V14.9755L31.0121 21.5138L19.4902 28.0797V28.1072Z" fill="black"/>
</svg>
